<?xml version="1.0" encoding="iso-8859-1"?>
<!-- Generator: Adobe Illustrator 19.0.0, SVG Export Plug-In . SVG Version: 6.00 Build 0)  -->
<svg version="1.1" id="Capa_1" xmlns="http://www.w3.org/2000/svg" xmlns:xlink="http://www.w3.org/1999/xlink" x="0px" y="0px"
	 viewBox="0 0 512 512" style="enable-background:new 0 0 512 512;" xml:space="preserve">
<g>
	<g>
		<path d="M352,64H160c-17.632,0-32,14.368-32,32v320c0,17.664,14.368,32,32,32h192c17.664,0,32-14.336,32-32V96
			C384,78.368,369.664,64,352,64z M352,384H160V128h192V384z"/>
	</g>
</g>
<g>
	<g>
		<path d="M424.576,199.424c-6.24-6.24-16.384-6.24-22.624,0c-6.24,6.24-6.24,16.384,0,22.624C411.008,231.136,416,243.168,416,256
			c0,12.832-4.992,24.864-14.048,33.952c-6.24,6.24-6.24,16.384,0,22.624c3.136,3.136,7.232,4.672,11.328,4.672
			s8.192-1.568,11.328-4.672C439.68,297.472,448,277.376,448,256C448,234.624,439.68,214.528,424.576,199.424z"/>
	</g>
</g>
<g>
	<g>
		<path d="M469.824,154.176c-6.24-6.24-16.384-6.24-22.624,0c-6.24,6.24-6.24,16.384,0,22.624c21.152,21.152,32.8,49.28,32.8,79.2
			s-11.648,58.016-32.8,79.2c-6.24,6.24-6.24,16.384,0,22.624c3.136,3.136,7.232,4.672,11.328,4.672s8.192-1.568,11.328-4.672
			C497.024,330.624,512,294.464,512,256S497.024,181.376,469.824,154.176z"/>
	</g>
</g>
<g>
	<g>
		<path d="M110.08,289.952C100.992,280.864,96,268.832,96,256c0-12.832,4.992-24.864,14.048-33.952
			c6.272-6.208,6.272-16.352,0-22.624c-6.24-6.24-16.384-6.24-22.624,0C72.32,214.528,64,234.624,64,256
			c0,21.376,8.32,41.472,23.424,56.576c3.136,3.104,7.232,4.672,11.328,4.672s8.192-1.568,11.328-4.672
			C116.32,306.336,116.32,296.192,110.08,289.952z"/>
	</g>
</g>
<g>
	<g>
		<path d="M64.832,335.2C43.648,314.016,32,285.92,32,256s11.648-58.048,32.8-79.2c6.24-6.24,6.24-16.384,0-22.624
			c-6.24-6.24-16.384-6.24-22.624,0C14.976,181.376,0,217.536,0,256s14.976,74.624,42.176,101.824
			c3.136,3.136,7.232,4.672,11.328,4.672c4.096,0,8.192-1.568,11.328-4.672C71.072,351.584,71.072,341.44,64.832,335.2z"/>
	</g>
</g>
<g>
</g>
<g>
</g>
<g>
</g>
<g>
</g>
<g>
</g>
<g>
</g>
<g>
</g>
<g>
</g>
<g>
</g>
<g>
</g>
<g>
</g>
<g>
</g>
<g>
</g>
<g>
</g>
<g>
</g>
</svg>
