<?xml version="1.0" standalone="no"?>
<!DOCTYPE svg PUBLIC "-//W3C//DTD SVG 20010904//EN"
 "http://www.w3.org/TR/2001/REC-SVG-20010904/DTD/svg10.dtd">
<svg version="1.0" xmlns="http://www.w3.org/2000/svg"
 width="800.000000pt" height="800.000000pt" viewBox="0 0 800.000000 800.000000"
 preserveAspectRatio="xMidYMid meet">

<g transform="translate(0.000000,800.000000) scale(0.100000,-0.100000)"
fill="#000000" stroke="none">
<path d="M4283 6918 c-28 -13 -37 -39 -34 -100 2 -58 -15 -127 -35 -135 -7 -3
-14 -10 -14 -15 0 -29 -86 -104 -165 -143 -22 -10 -52 -27 -67 -37 -14 -10
-31 -18 -38 -18 -7 0 -24 -8 -38 -19 -15 -10 -53 -24 -84 -31 -32 -7 -58 -16
-58 -20 0 -4 -28 -13 -62 -19 -57 -11 -84 -19 -128 -41 -8 -4 -46 -13 -85 -20
-38 -7 -74 -17 -80 -22 -5 -4 -19 -8 -31 -8 -13 0 -25 -4 -28 -9 -5 -8 -75
-22 -131 -26 -11 -1 -42 -12 -70 -24 -27 -13 -63 -25 -80 -28 -16 -3 -34 -8
-40 -12 -5 -4 -28 -13 -50 -19 -83 -24 -139 -105 -121 -176 9 -36 78 -66 154
-66 33 0 63 4 66 9 3 4 35 11 72 15 37 4 83 14 102 22 20 8 65 17 101 20 37 3
70 10 76 15 5 5 22 9 39 9 16 0 37 7 46 15 10 9 43 18 79 20 33 3 69 9 78 14
46 23 75 30 166 42 53 6 100 16 103 20 3 5 16 9 30 9 13 0 24 4 24 8 0 4 33
14 73 21 39 7 77 17 82 21 6 4 48 13 95 20 47 6 93 16 102 21 10 5 26 9 36 9
10 0 23 5 30 12 8 8 67 12 181 14 163 1 172 2 214 27 35 21 46 34 51 59 7 42
-15 129 -43 164 -12 15 -21 33 -21 40 0 8 -31 46 -70 85 -38 40 -70 77 -70 83
0 19 -102 111 -142 130 -21 9 -38 21 -38 25 0 13 -99 51 -129 50 -14 0 -36 -5
-48 -11z"/>
<path d="M4873 6028 c-12 -13 -24 -41 -28 -63 -9 -55 -27 -107 -42 -123 -7 -7
-13 -21 -13 -31 0 -10 -13 -34 -30 -52 -16 -19 -30 -40 -30 -47 0 -7 -6 -19
-12 -27 -7 -7 -29 -32 -48 -55 -19 -23 -61 -70 -93 -105 -50 -54 -58 -69 -64
-113 -5 -45 -3 -53 20 -76 14 -14 37 -26 50 -26 41 0 141 21 170 37 16 8 38
15 50 16 12 2 38 10 57 19 19 8 55 21 80 27 25 7 55 16 68 21 56 24 71 29 140
40 39 6 72 16 72 21 0 5 14 9 30 9 17 0 30 4 30 9 0 5 9 11 20 14 11 3 20 12
20 21 0 9 5 16 10 16 6 0 10 26 10 59 0 33 -4 63 -10 66 -5 3 -10 16 -10 29 0
12 -9 32 -21 44 -11 12 -25 36 -30 52 -6 16 -19 32 -30 35 -10 4 -19 14 -19
22 0 28 -83 99 -142 124 -16 6 -28 15 -28 20 0 5 -7 9 -16 9 -8 0 -22 7 -30
15 -25 24 -106 20 -131 -7z"/>
<path d="M3469 5921 c-30 -37 -21 -126 13 -137 10 -3 23 -17 28 -30 5 -13 14
-24 19 -24 5 0 13 -9 16 -20 4 -11 17 -32 31 -45 13 -13 24 -28 24 -32 0 -4
27 -37 60 -72 33 -35 62 -72 65 -82 4 -11 11 -19 16 -19 5 0 9 -7 9 -16 0 -19
140 -154 161 -154 8 0 20 -5 25 -10 8 -8 23 -5 50 8 21 11 50 24 64 30 14 5
30 20 37 33 33 71 42 99 37 114 -4 9 -1 27 6 40 10 20 10 30 0 55 -11 26 -11
33 -1 40 9 5 10 10 2 14 -6 4 -11 18 -11 32 0 13 -4 24 -9 24 -5 0 -11 12 -14
28 -5 27 -38 72 -51 72 -4 0 -26 13 -49 29 -23 15 -53 32 -67 36 -14 4 -38 13
-55 20 -69 29 -106 40 -173 50 -13 2 -29 9 -37 15 -8 7 -15 9 -15 5 0 -4 -7
-2 -15 5 -8 7 -44 13 -81 14 -59 1 -69 -2 -85 -23z"/>
<path d="M2502 5894 c-18 -12 -22 -25 -22 -67 0 -50 4 -60 66 -179 8 -14 21
-29 29 -32 8 -3 15 -13 15 -22 0 -9 10 -27 23 -39 12 -13 36 -42 52 -65 17
-23 45 -56 63 -73 17 -17 32 -36 32 -44 0 -7 12 -19 28 -27 15 -8 53 -41 84
-75 31 -34 63 -61 70 -61 8 0 18 -4 24 -9 22 -22 87 -51 112 -51 15 0 38 9 52
20 14 11 30 20 36 20 18 0 74 68 74 88 0 10 5 23 12 30 6 6 13 48 16 92 4 70
1 89 -19 133 -31 70 -115 147 -160 147 -7 0 -24 11 -38 24 -15 12 -48 29 -76
36 -27 8 -59 19 -70 26 -11 7 -35 15 -53 19 -18 4 -36 15 -42 24 -5 10 -31 24
-57 31 -26 7 -55 20 -63 30 -14 15 -52 25 -135 36 -17 2 -40 -3 -53 -12z"/>
<path d="M1884 5176 c-26 -28 -32 -44 -37 -102 -12 -128 -19 -169 -36 -189
-25 -31 -41 -63 -41 -82 0 -10 -8 -23 -19 -30 -10 -6 -33 -42 -51 -79 -19 -37
-42 -76 -52 -86 -10 -10 -18 -22 -18 -26 0 -5 -11 -22 -25 -38 -14 -16 -25
-35 -25 -41 0 -7 -12 -20 -26 -30 -14 -9 -38 -42 -52 -72 -24 -51 -27 -67 -27
-173 0 -80 4 -121 13 -129 6 -7 12 -22 12 -32 0 -29 69 -114 107 -133 48 -22
104 -10 165 35 45 35 120 129 124 158 1 7 9 26 18 44 8 17 18 47 22 68 3 20
17 60 30 89 13 29 24 56 24 61 0 23 36 117 47 124 7 4 13 14 13 21 0 7 11 23
25 36 14 13 25 29 25 36 0 16 57 59 90 69 14 4 48 18 76 32 41 19 71 25 140
27 49 2 105 8 124 14 36 11 171 30 252 35 26 2 51 6 54 10 4 4 28 7 52 7 25 0
59 4 76 10 17 5 92 14 166 20 74 6 143 16 152 21 10 5 40 9 68 9 27 0 50 4 50
9 0 8 109 16 375 27 83 4 155 10 161 15 5 4 62 9 125 10 62 0 119 5 124 10 12
9 71 6 98 -6 10 -4 23 -2 31 4 21 18 535 -1 574 -21 18 -9 28 -9 42 0 24 14
156 16 165 2 4 -6 55 -10 121 -10 118 0 245 -14 276 -31 10 -5 31 -9 47 -9 17
0 33 -4 36 -10 3 -5 17 -10 30 -10 30 0 40 -30 39 -109 -1 -38 -6 -57 -18 -63
-9 -5 -16 -15 -16 -22 0 -7 -9 -21 -20 -31 -11 -10 -20 -24 -20 -30 0 -7 -11
-20 -25 -29 -14 -9 -25 -23 -25 -31 0 -8 -4 -15 -10 -15 -5 0 -10 -7 -10 -15
0 -8 -5 -25 -12 -38 -25 -49 -28 -58 -28 -82 0 -74 60 -94 144 -50 26 14 53
25 60 25 8 0 19 7 26 15 7 9 20 13 27 10 8 -3 25 3 38 13 17 13 43 20 87 21
34 1 67 6 72 11 6 6 24 10 41 10 17 0 35 4 40 9 10 9 39 13 205 27 41 3 79 10
85 15 5 5 37 9 71 9 66 0 114 18 126 47 13 33 9 163 -6 191 -8 15 -30 43 -50
61 -20 19 -36 40 -36 45 0 6 -36 48 -80 94 -44 46 -80 85 -80 88 0 9 -55 74
-63 74 -4 0 -25 12 -48 27 -34 23 -53 27 -139 31 -55 3 -100 9 -100 13 0 14
-724 11 -738 -3 -9 -9 -18 -8 -37 2 -19 10 -28 11 -33 3 -5 -7 -84 -13 -222
-18 -118 -4 -218 -9 -221 -11 -4 -2 -58 -4 -120 -5 -63 -1 -116 -5 -119 -9 -3
-4 -110 -12 -237 -17 -158 -6 -237 -13 -245 -21 -8 -8 -46 -12 -105 -12 -55 0
-93 -4 -93 -10 0 -5 -24 -10 -54 -10 -30 0 -58 5 -61 10 -8 12 -72 13 -79 1
-3 -4 -88 -11 -188 -15 -331 -11 -448 -19 -454 -27 -3 -5 -29 -9 -58 -9 -28 0
-56 -4 -61 -9 -13 -12 -182 -29 -197 -20 -7 4 -20 3 -29 -2 -10 -5 -69 -9
-133 -9 -63 0 -117 -4 -120 -9 -4 -5 -24 -1 -46 10 -21 10 -45 19 -52 19 -11
1 -65 73 -77 104 -14 35 -140 116 -180 116 -3 0 -20 -15 -37 -34z"/>
<path d="M4471 4734 c-12 -16 -21 -41 -21 -62 0 -71 21 -112 102 -195 43 -44
78 -83 78 -87 0 -11 272 -284 305 -305 55 -36 77 -45 109 -45 38 0 90 31 107
62 6 13 21 33 32 46 19 20 21 36 22 127 0 70 -4 108 -12 116 -7 7 -13 23 -13
35 0 13 -4 26 -10 29 -5 3 -10 14 -10 24 0 25 -92 116 -140 139 -14 7 -40 21
-58 32 -18 11 -35 19 -37 19 -10 -1 -120 34 -130 42 -5 4 -43 13 -82 20 -40 7
-73 17 -73 21 0 4 -33 8 -74 8 -69 0 -76 -2 -95 -26z"/>
<path d="M3554 4660 c-60 -7 -94 -51 -94 -119 0 -28 5 -51 10 -51 6 0 10 -16
10 -36 0 -19 7 -42 15 -50 8 -9 15 -26 15 -40 0 -13 4 -24 10 -24 5 0 17 -17
27 -37 20 -42 25 -49 87 -115 24 -27 47 -48 52 -48 4 0 27 -10 52 -21 42 -21
45 -21 82 -4 26 12 42 27 50 49 6 17 16 38 21 46 5 8 19 35 30 60 12 25 26 52
30 60 5 8 16 29 24 46 8 17 21 34 30 37 8 4 15 15 15 26 0 11 5 23 10 26 6 3
10 15 10 25 0 10 10 26 21 34 21 14 21 16 5 51 -10 20 -25 39 -33 42 -22 9
-92 6 -133 -4 -19 -6 -56 -9 -82 -8 -57 3 -188 33 -208 49 -9 7 -32 9 -56 6z"/>
<path d="M2463 4516 c-23 -24 -34 -48 -42 -91 -6 -33 -16 -64 -21 -69 -6 -6
-10 -25 -10 -44 0 -19 -13 -61 -30 -94 -16 -32 -30 -65 -30 -73 0 -7 -11 -26
-24 -42 -13 -16 -32 -53 -41 -82 -10 -29 -24 -58 -31 -65 -34 -34 -40 -225 -8
-286 21 -42 107 -117 140 -123 60 -11 100 3 152 54 27 26 55 63 61 81 7 18 21
51 31 73 11 24 22 77 26 133 4 51 11 95 15 98 14 8 11 214 -2 214 -8 0 -7 5 2
16 8 10 9 18 3 22 -6 4 -15 52 -21 108 -15 139 -49 204 -107 204 -22 -1 -41
-11 -63 -34z"/>
<path d="M2980 4343 c-8 -4 -20 -12 -27 -19 -7 -7 -18 -14 -24 -16 -7 -2 -11
-26 -11 -59 0 -57 29 -125 76 -179 12 -14 35 -45 52 -70 35 -55 40 -59 84 -89
19 -14 52 -43 72 -65 34 -37 37 -47 38 -98 0 -54 -26 -128 -50 -143 -5 -3 -11
-23 -15 -44 -4 -22 -13 -42 -21 -45 -8 -3 -23 -25 -33 -50 -11 -24 -24 -47
-30 -51 -6 -3 -20 -23 -30 -43 -11 -21 -35 -55 -54 -77 -20 -22 -47 -53 -61
-70 -183 -212 -441 -476 -596 -610 -50 -44 -103 -90 -116 -102 -14 -13 -34
-28 -47 -34 -24 -13 -30 -18 -102 -87 -28 -26 -64 -53 -81 -60 -18 -8 -44 -27
-60 -43 -15 -16 -34 -29 -41 -29 -7 0 -13 -4 -13 -9 0 -5 -9 -12 -19 -16 -11
-3 -34 -19 -52 -36 -17 -16 -35 -29 -39 -29 -5 0 -15 -6 -22 -12 -36 -34 -117
-98 -124 -98 -4 0 -16 -8 -26 -17 -11 -10 -32 -22 -48 -28 -15 -5 -46 -31 -67
-56 -33 -38 -39 -52 -35 -81 3 -29 10 -38 41 -51 41 -18 151 -23 151 -7 0 6 7
10 15 10 8 0 23 4 33 9 9 5 52 26 95 47 42 20 91 48 109 60 18 13 36 24 41 24
5 0 22 11 39 25 16 14 36 25 44 25 8 0 38 17 67 37 28 20 66 46 82 57 17 12
32 24 33 29 2 4 20 14 40 23 21 8 48 25 62 38 14 12 44 35 67 50 23 16 45 36
48 46 3 10 18 20 34 23 16 3 35 12 42 19 8 7 36 31 63 52 26 22 62 52 79 68
17 15 35 28 39 28 8 0 42 28 122 102 76 70 123 108 131 108 5 0 29 21 54 48
26 26 59 55 74 65 15 9 27 22 27 28 0 15 59 69 76 69 9 0 18 -9 21 -20 3 -10
14 -22 24 -25 10 -4 19 -14 19 -23 0 -17 122 -152 137 -152 5 0 14 -9 21 -20
7 -11 21 -20 32 -20 11 0 20 -7 20 -15 0 -9 13 -24 30 -33 16 -9 30 -21 30
-27 0 -5 14 -18 30 -27 18 -10 30 -25 30 -38 0 -13 7 -20 20 -20 27 0 44 -34
30 -61 -17 -30 -120 -129 -136 -129 -8 0 -14 -6 -14 -14 0 -10 -69 -66 -83
-66 -1 0 -29 -25 -61 -55 -32 -30 -62 -55 -68 -55 -6 0 -19 -11 -30 -25 -11
-14 -24 -25 -29 -25 -10 0 -103 -63 -135 -91 -11 -11 -27 -19 -35 -19 -8 -1
-30 -14 -49 -30 -19 -17 -38 -30 -43 -30 -5 0 -27 -13 -50 -28 -23 -16 -59
-36 -79 -45 -20 -10 -50 -28 -66 -42 -15 -13 -40 -27 -54 -30 -14 -4 -35 -17
-46 -30 -11 -13 -34 -26 -52 -30 -17 -4 -36 -15 -43 -26 -6 -10 -19 -19 -27
-19 -20 -1 -53 -28 -74 -61 -12 -19 -14 -33 -7 -51 16 -42 36 -51 109 -48 142
6 166 11 217 42 17 10 40 18 51 18 12 0 27 6 33 14 17 20 129 76 152 76 10 0
33 13 51 28 18 16 45 32 61 36 15 3 27 11 27 16 0 6 9 10 19 10 11 0 21 4 23
9 2 5 19 17 40 27 52 27 142 90 225 156 39 32 76 58 82 58 6 0 15 9 21 20 6
12 21 25 33 31 32 14 91 58 100 75 4 8 13 14 19 14 6 0 42 30 80 67 l70 66 64
-68 c35 -37 64 -71 64 -76 0 -11 83 -89 95 -89 14 0 97 -88 120 -127 11 -18
25 -33 33 -33 7 0 97 -83 198 -185 102 -102 191 -185 199 -185 8 0 15 -7 15
-15 0 -8 3 -15 8 -15 14 -1 222 -209 222 -224 0 -8 9 -17 20 -21 10 -3 40 -27
65 -53 l47 -47 371 -3 c204 -2 378 -7 386 -11 22 -12 148 -14 155 -3 3 5 57
10 121 11 214 3 254 8 308 43 63 41 72 59 51 104 -17 36 -57 70 -109 93 -16 7
-38 17 -47 22 -10 5 -29 9 -42 9 -14 0 -51 7 -83 16 -32 9 -69 18 -83 19 -71
6 -127 19 -141 31 -17 15 -116 44 -149 44 -11 0 -20 5 -20 10 0 6 -9 10 -20
10 -11 0 -20 4 -20 9 0 5 -18 12 -40 16 -22 4 -42 11 -46 16 -7 12 -107 59
-125 59 -8 0 -23 7 -33 15 -11 8 -27 15 -37 15 -9 0 -22 7 -29 15 -7 8 -20 15
-30 15 -10 0 -23 7 -30 15 -7 8 -19 15 -27 15 -8 0 -26 9 -41 20 -14 11 -45
25 -68 31 -23 6 -51 18 -61 28 -23 21 -69 41 -93 41 -11 0 -20 5 -20 10 0 6
-9 10 -19 10 -11 0 -23 5 -26 10 -3 6 -16 10 -27 10 -12 0 -35 10 -52 23 -17
13 -44 30 -61 38 -16 9 -39 20 -50 26 -11 6 -33 17 -50 24 -16 7 -43 22 -58
32 -15 10 -33 20 -40 21 -28 5 -137 80 -186 129 -16 15 -31 27 -35 27 -4 0
-12 5 -19 10 -56 47 -74 60 -84 60 -7 0 -13 4 -13 9 0 5 -15 14 -32 22 -33 12
-48 24 -92 67 -13 12 -28 22 -33 22 -5 0 -20 11 -33 25 -17 18 -22 30 -15 39
24 33 140 162 157 174 10 7 18 19 18 26 0 14 81 86 97 86 4 1 26 23 47 50 21
27 47 52 57 55 18 6 100 105 154 185 25 38 30 54 29 103 -1 44 -6 63 -23 81
-11 12 -21 26 -21 32 0 5 -12 17 -28 26 -48 31 -139 112 -173 155 -19 23 -40
42 -46 42 -7 1 -13 6 -13 12 0 7 29 8 93 4 142 -11 161 -11 174 -2 7 5 20 4
32 -2 11 -6 67 -11 125 -11 59 0 108 -4 111 -10 8 -12 182 -13 189 -1 3 5 18
11 33 14 56 10 73 16 97 34 30 22 37 44 31 107 -4 40 -11 53 -42 82 -21 18
-41 34 -44 34 -4 0 -22 13 -40 30 -19 16 -41 30 -50 30 -8 0 -26 11 -39 24
-12 14 -34 28 -49 31 -22 5 -64 39 -116 94 -5 6 -70 70 -144 142 -125 122
-136 131 -180 136 -69 8 -91 -15 -91 -95 0 -33 5 -64 10 -67 6 -3 10 -40 10
-81 0 -43 -4 -74 -10 -74 -5 0 -10 -9 -10 -19 0 -21 -48 -61 -73 -61 -9 0 -19
-4 -22 -10 -9 -14 -101 -12 -125 3 -17 10 -22 9 -30 -3 -7 -12 -12 -12 -22 -2
-6 6 -36 12 -65 12 -29 0 -53 4 -53 8 0 4 -32 13 -70 20 -39 7 -78 16 -88 21
-36 18 -68 30 -97 35 -51 8 -90 19 -95 25 -3 4 -27 12 -54 19 -27 7 -62 24
-78 37 -27 23 -35 26 -54 24 -3 0 -21 14 -40 30 -19 17 -41 31 -49 31 -8 0
-15 5 -15 10 0 6 -6 10 -13 10 -8 0 -22 9 -32 20 -10 11 -24 20 -31 20 -8 0
-60 46 -116 102 -137 135 -168 156 -208 141z m627 -734 c27 -6 56 -15 65 -20
10 -5 27 -9 38 -9 11 0 20 -4 20 -9 0 -5 34 -15 75 -22 42 -6 78 -16 81 -20 3
-5 15 -9 28 -9 12 0 26 -4 32 -9 5 -5 27 -11 48 -13 50 -4 57 -23 17 -45 -17
-10 -31 -22 -31 -28 0 -9 -70 -54 -87 -56 -5 -1 -19 -10 -32 -20 -13 -11 -33
-19 -45 -19 -12 0 -45 -12 -74 -26 -28 -14 -73 -27 -99 -30 -26 -2 -61 -11
-78 -18 -16 -8 -47 -17 -67 -21 -33 -6 -37 -11 -43 -46 -7 -41 5 -69 30 -69 7
0 18 -7 25 -15 14 -17 129 -21 158 -6 27 15 153 31 240 31 83 0 101 -7 119
-51 10 -22 6 -36 -24 -95 -19 -38 -41 -76 -48 -84 -7 -8 -15 -28 -19 -43 -4
-16 -17 -38 -29 -50 -36 -35 -86 -102 -96 -130 -15 -40 -56 -46 -89 -14 -15
14 -39 29 -55 32 -15 4 -38 20 -51 36 -14 16 -29 29 -35 29 -5 0 -43 31 -83
70 -40 38 -76 70 -80 70 -3 0 -25 15 -47 34 -23 19 -51 38 -64 42 -23 7 -46
32 -47 50 0 6 18 32 40 57 22 25 40 48 40 52 0 8 62 88 76 97 6 4 28 28 49 53
55 68 71 122 69 238 -2 108 -5 104 73 86z"/>
</g>
</svg>
